# xmcd
#
# Track frame offsets: 
#        150
#        36022
#        52066
#        70444
#        92107
#        111924
#        125687
#        144236
#        179517
#        194296
#        213102
#        226720
#        245309
#        265681
#        290194
#        303993
#
# Disc length: 4298 seconds
#
# Revision: 0
# Processed by: cddbd v1.5.1PL2 Copyright (c) Steve Scherf et al.
# Submitted via: ExactAudioCopy v0.95b3
#
DISCID=ec10c810
DTITLE=Darrow, Chris - Slide On In
DYEAR=2002
DGENRE=Blues
TTITLE0=Kumbha Mela
TTITLE1=Jailhouse Tattoo
TTITLE2=Love Chain
TTITLE3=Short Walk
TTITLE4=Don't Come Back
TTITLE5=Good Imitation Of The Blues
TTITLE6=Every Bad Thing You Do
TTITLE7=Slide On In
TTITLE8=Tell Me What I Need To Know
TTITLE9=(Lost Her Love) On Our Last Date
TTITLE10=Tore Up From The Floor Up
TTITLE11=Whipping Boy
TTITLE12=Tired Of Being Lonely
TTITLE13=Soul Nation
TTITLE14=Handle Your Business
TTITLE15=Island Dreams
EXTD=
EXTT0=
EXTT1=
EXTT2=
EXTT3=
EXTT4=
EXTT5=
EXTT6=
EXTT7=
EXTT8=
EXTT9=
EXTT10=
EXTT11=
EXTT12=
EXTT13=
EXTT14=
EXTT15=
PLAYORDER=
